<?xml version="1.0" encoding="utf-8"?>
<!-- Generator: Adobe Illustrator 27.5.0, SVG Export Plug-In . SVG Version: 6.00 Build 0)  -->
<svg version="1.1" xmlns="http://www.w3.org/2000/svg" xmlns:xlink="http://www.w3.org/1999/xlink" x="0px" y="0px" width="792px"
	 height="327px" viewBox="0 0 792 327" style="enable-background:new 0 0 792 327;" xml:space="preserve">
<style type="text/css">
	.st0{fill:#548C7B;}
	.st1{fill:#FFFFFF;}
	.st2{fill:#414042;}
</style>
<g id="Verde">
	<g>
		<g>
			<g>
				<g>
					<path class="st0" d="M683.9,292.4H241.8c-19.2,0-37-6.9-47.7-18.5L133.7,220c-0.2-0.2-0.4-0.4-0.5-0.5
						c-12.7-14-12.7-32.2,0-46.2c0.2-0.2,0.3-0.4,0.5-0.5l60.3-53.9c10.7-11.6,28.5-18.5,47.7-18.5h442.1c16,0,29.9,3,40.1,8.7
						c11.4,6.4,17.4,15.6,17.4,26.8v114.7C741.4,273.6,715.6,292.4,683.9,292.4z M150.4,212.4l60.3,53.9c0.2,0.2,0.4,0.4,0.5,0.5
						c7,7.7,18.4,12.3,30.5,12.3h442.1c20.5,0,37.2-12.9,37.2-28.7V135.7c0-20.1-26-22.2-37.2-22.2H241.8
						c-12.1,0-23.5,4.6-30.5,12.3c-0.2,0.2-0.3,0.4-0.5,0.5l-60.3,53.9C141.9,189.9,141.9,202.7,150.4,212.4z"/>
				</g>
			</g>
			<g>
				<g>
					<path class="st0" d="M204.5,213.4c-11.6,0-21.1-9.4-21.1-21.1s9.4-21.1,21.1-21.1c11.6,0,21.1,9.4,21.1,21.1
						S216.1,213.4,204.5,213.4z M204.5,181.2c-6.2,0-11.2,5-11.2,11.2c0,6.2,5,11.2,11.2,11.2c6.2,0,11.2-5,11.2-11.2
						C215.7,186.2,210.6,181.2,204.5,181.2z"/>
				</g>
			</g>
			<g>
				<g>
					<g>
						<path class="st0" d="M121.6,105c-5.6-11.3-6.1-24.6-3-36.8c3-12.2,9.3-23.4,16.8-33.5c11.4,10.2,23.1,21,28.9,35.1
							c5,12.3,6.1,42.3-3.9,53c-0.3,0.3-0.6,0.6-0.9,0.9c-7-13-11.2-27.4-12.2-42.2c-0.1-2.1-1.9-3.6-4-3.5c-2.1,0.1-3.6,1.9-3.5,4
							c1.1,15.6,5.5,31,12.9,44.8C140.7,128.3,125.9,113.8,121.6,105z"/>
					</g>
				</g>
				<g>
					<g>
						<path class="st0" d="M94.7,115.9c13.6-0.7,42.8,7.6,49.4,20c0.8,1.4,1.2,2.9,1.4,4.3c-17.9,2.8-36.6,0.8-53.5-5.6
							c-1.9-0.7-4.1,0.2-4.8,2.2s0.2,4.1,2.2,4.8c17.1,6.5,36,8.7,54.2,6.4c-5.6,9.3-21.6,16.4-30.5,17.5
							c-12.8,1.6-25.8-2.2-36.4-8.7c-10.6-6.5-19.1-15.7-26.1-25.6C64.5,124.1,79.1,116.8,94.7,115.9z"/>
					</g>
				</g>
			</g>
		</g>
		<g>
			<g>
				<path class="st0" d="M275.5,159.7c-3.5,2.5-5.5,7.3-5.5,12.2c0,3.1,0.8,6.3,2.6,8.9c5.8,8.6,17.6,23.1,17.6,38.9
					c0,6.3-1.8,12.7-6.7,19.3c-6.8,6.7-19.3,8.8-33.9,8.8l-0.3-16.8c0.5,0,1,0,1.7,0c1.2,0,2.6,0,4.1,0c5.9,0,13.5-0.7,17.8-7.2
					c0.4-2,0.5-3.8,0.5-5.5c0-17.7-18.5-27.7-19.4-41.7c-0.1-1.6-0.1-3.1-0.1-4.8c0-9,1.8-19.4,9.8-25.4c4.1-3,12.3-5.1,20.7-5.8
					l2.5,15.6C282.4,156.9,278.4,157.5,275.5,159.7z"/>
				<path class="st0" d="M324.3,247.3l-1.3-4.7c-3.7,1.3-8.5,5.1-14.4,5.1c-2.8,0-5.8-0.9-9-3.3c-4.3-3.1-6-10-6-16.8
					c0-5.8,1.2-11.4,3-14.5c3.5-6.2,13.2-9.7,24.9-10.4c0.1-3.7,2.1-15.2-2.4-18.5c-3.5-2.6-14.2,0-18.6,0
					c-0.1-3.8-0.5-7.9-0.5-12.2c0-0.8,0-1.6,0-2.5c6.2-0.7,12.1-1.2,17-1.2c5.8,0,10.4,0.7,12.6,2.9c1.8,1.8,3.9,6,4.6,7.6
					c2.2,5.4,0,48,5.1,68.4H324.3z M311.2,216.9c-2.1,0.9-5.6,3.3-6.4,7.3c-0.1,6,0.4,10.2,6.3,10.2c7.1-1.6,10.5-4.5,10.1-18.9
					C314.7,215.4,313,216.1,311.2,216.9z"/>
				<path class="st0" d="M384.1,207.8c0,11-0.3,23.1-3.4,32c-2.8,3-6.4,4.2-10,4.2c-2,0-3.8-0.3-5.5-0.9c-1.8-0.7-4.5-1.6-6.6-3
					c0.3,1.7,0.3,4.8,0,7.9c-0.8,0.1-2,0.1-3.1,0.1c-2.8,0-6.3-0.1-8.8-0.1c-0.7,0-1.2,0-1.7,0c-1.3-30.4-1.3-72.2-2.5-105
					c2.4-0.3,8.6-0.4,11.7-0.4c1,0,1.7,0,1.7,0l0.3,4.1c0.8,11.7,0.1,21.8,0.9,27.9c3.8-1.8,6-2.2,9.8-2.9c1.8-0.3,3.7-0.5,5.4-0.5
					c2.6,0,5.2,0.5,7.5,2.6c3.8,6.7,4.3,13.4,4.3,20.2C384.1,195,384.1,195.9,384.1,207.8z M369.2,189c-0.5-2.1-2.4-3-4.5-3
					c-2.5,0-5.5,1.3-6.7,3.3c0.8,15.2-0.1,27.3,1,37.5c1.8,0.4,4.6,1,6.9,1c2.5,0,4.6-0.7,4.8-3.1C371.1,222,371.8,199.7,369.2,189z
					"/>
				<path class="st0" d="M431.5,224.9c0,7.2-0.3,12.4-3.1,16.1c-4.3,5.6-8.5,7.2-18.9,7.2c-3.8,0-10.5,0-14.8-2.6
					c-3.8-2.4-5.6-6.9-6-11c-0.8-9.7-0.8-15.9-0.8-25.6c-0.1-10.2-0.4-16.4-0.4-22.5c0-11.4,10-16.5,18-17.2
					c1.2-0.1,2.4-0.1,3.7-0.1c8.1,0,18.1,2.1,20.7,11.1c1.4,5.1,1.6,6.9,1.6,10c0,1.4,0,3.3,0,5.8
					C431.5,202.6,431.5,209.1,431.5,224.9z M416.4,188.2c-0.3-3.9-2.8-6.8-7.3-6.7c-4.5,0.1-6.4,3.3-6.4,7.2c0,14.7-0.4,36-0.1,39.2
					c0.7,9,5.1,8.8,8.1,8.4c2.4-0.4,5.8-1.8,6.7-7.3C418.1,224.5,417.3,204.9,416.4,188.2z"/>
				<path class="st0" d="M451.4,190.7c-0.1,21.5-0.1,38.8-0.1,56.6c-2.9,0.1-6,0.3-8.9,0.3c-2.9,0-5.5-0.1-7.6-0.3
					c0.1-29,1-57.5,2-84.1l14.5,0.1v11.4c6.8-1.6,12.4-2.8,20.2-4.5c1.2,3.9,1.8,7.6,2.5,10.5L451.4,190.7z"/>
			</g>
			<g>
				<path class="st0" d="M498.1,246.2l-1-0.7l-1.6-102.2l-0.1-1.3l15.2,0.7l3.5,87.7c6.4,0.5,14.9,0.4,21.1,0.1
					c0.1,2.8,0.1,6,0.1,9.4c0,2.1,0,4.3,0.1,6.3H498.1z"/>
				<path class="st0" d="M582.8,223.8c0,7.2-0.3,12.4-3.1,16.1c-4.3,5.6-8.5,7.2-18.9,7.2c-3.8,0-10.5,0-14.8-2.6
					c-3.8-2.4-5.6-6.9-6-11c-0.8-9.7-0.8-15.9-0.8-25.6c-0.1-10.2-0.4-16.4-0.4-22.5c0-11.4,10-16.5,18-17.2
					c1.2-0.1,2.4-0.1,3.7-0.1c8.1,0,18.1,2.1,20.7,11.1c1.4,5.1,1.6,6.9,1.6,10c0,1.4,0,3.3,0,5.8
					C582.8,201.5,582.8,208.1,582.8,223.8z M567.7,187.1c-0.3-3.9-2.8-6.8-7.3-6.7c-4.5,0.1-6.4,3.3-6.4,7.2c0,14.7-0.4,36-0.1,39.2
					c0.7,9,5.1,8.8,8.1,8.4c2.4-0.4,5.8-1.8,6.7-7.3C569.4,223.4,568.6,203.9,567.7,187.1z"/>
				<path class="st0" d="M617.7,235.6c0,3.4,0,6.9-0.3,10.6c-9.6-1-24.4-2.4-28-11c-1.3-3.3-2.2-8.8-2.4-12.3
					c-0.1-8.5-0.9-16.1-0.9-23.2c0-7.2,0.8-13.9,3.4-20.3c2.8-6.6,13.5-10,22.3-10c1.4,0,2.8,0.1,4.1,0.3v14.2
					c-5.1,1.3-12.6-0.9-14.9,6.8c-0.7,2-0.8,4.3-0.8,7.1c0,8.1,2.1,18.7,3.1,27.4c2.6,5.6,8.9,6.3,14.4,7.1
					C617.7,233.4,617.7,234.4,617.7,235.6z"/>
				<path class="st0" d="M651.8,246.2l-1.3-4.7c-3.7,1.3-8.5,5.1-14.4,5.1c-2.8,0-5.8-0.9-9-3.3c-4.3-3.1-6-10-6-16.8
					c0-5.8,1.2-11.4,3-14.5c3.5-6.2,13.2-9.7,24.9-10.4c0.1-3.7,2.1-15.2-2.4-18.5c-3.5-2.6-14.2,0-18.6,0
					c-0.1-3.8-0.5-7.9-0.5-12.2c0-0.8,0-1.6,0-2.5c6.2-0.7,12.1-1.2,17-1.2c5.8,0,10.4,0.7,12.6,2.9c1.8,1.8,3.9,6,4.6,7.6
					c2.2,5.4,0,48,5.1,68.4H651.8z M638.7,215.8c-2.1,0.9-5.6,3.3-6.4,7.3c-0.1,6,0.4,10.2,6.3,10.2c7.1-1.6,10.5-4.5,10.1-18.9
					C642.3,214.4,640.6,215,638.7,215.8z"/>
				<path class="st0" d="M695.9,248.2c-9.4,0-23.2-0.5-24.4-11.9c-1.2-11.3-1.4-22-1.4-32.9c0-8.5,0.1-17.2,0.3-26.3l0.4-35.3
					c5.5-0.5,11.7,0,16.5-0.8c-0.3,27.1-1.6,56-0.5,87.7c0.1,5.9,6.6,4.7,11.7,5c0.3,3.7,0.5,6.9,0.5,10c0,1.6,0,3.1-0.3,4.6
					C697.8,248.2,696.8,248.2,695.9,248.2z"/>
			</g>
		</g>
	</g>
</g>
<g id="Branco">
</g>
<g id="Preto">
</g>
</svg>
